<?xml version="1.0" encoding="UTF-8"?>
<svg xmlns="http://www.w3.org/2000/svg" xmlns:xlink="http://www.w3.org/1999/xlink" width="48pt" height="48pt" viewBox="0 0 48 48" version="1.1">
<g id="surface1">
<path style=" stroke:none;fill-rule:nonzero;fill:#1282C5;fill-opacity:1;" d="M 12 4 L 12 8 L 10 8 C 7.796875 8 6 9.796875 6 12 L 6 40 C 6 42.203125 7.796875 44 10 44 L 38 44 C 40.203125 44 42 42.203125 42 40 L 42 12 C 42 9.796875 40.203125 8 38 8 L 36 8 L 36 4 L 32 4 L 32 8 L 16 8 L 16 4 Z M 10 18 L 38 18 L 38 40 L 10 40 Z M 14 22 L 14 26 L 18 26 L 18 22 Z M 22 22 L 22 26 L 34 26 L 34 22 Z M 14 30 L 14 34 L 18 34 L 18 30 Z M 22 30 L 22 34 L 30 34 L 30 30 Z "/>
</g>
</svg>
